<svg><path fill-rule="evenodd" clip-rule="evenodd" d="M1.29308 2.00051C1.52334 2.00051 1.64438 2.00109 1.73175 2.00729L1.74007 2.00791L1.74295 2.01574C1.77291 2.09804 1.80672 2.21427 1.86998 2.43567L3.4407 7.93322L2.67819 9.71243C2.1126 11.0321 3.08063 12.5002 4.51642 12.5002H12.4996C13.0519 12.5002 13.4996 12.0525 13.4996 11.5002C13.4996 10.9479 13.0519 10.5002 12.4996 10.5002L4.51642 10.5002L5.15926 9.00028H11.225L11.3139 9.00054C11.6342 9.00193 12.0361 9.00367 12.4 8.8592C12.7139 8.73463 12.991 8.53264 13.2057 8.27204C13.4547 7.96981 13.5762 7.58677 13.673 7.28139L13.6999 7.19666L14.2908 5.36026C14.3943 5.03849 14.4915 4.73655 14.5493 4.48041C14.6104 4.20932 14.6587 3.86671 14.5635 3.49916C14.4362 3.00749 14.1266 2.58267 13.6976 2.3109C13.3768 2.10775 13.0359 2.04874 12.7591 2.0239C12.4976 2.00043 12.1804 2.00046 11.8424 2.00049L3.82561 2.00049L3.79296 1.88624L3.76796 1.79773C3.67862 1.47969 3.56662 1.08099 3.31814 0.764783C3.10398 0.492272 2.82269 0.280091 2.50183 0.149045C2.12953 -0.0030142 1.71539 -0.00117188 1.38505 0.000297811L1.29308 0.000574368H0.999969C0.447702 0.000574368 0 0.448276 0 1.00054C0 1.55281 0.447702 2.00051 0.999969 2.00051H1.29308Z" fill="currentColor"></path></svg>