<?xml version="1.0" encoding="UTF-8"?>
<!DOCTYPE svg PUBLIC "-//W3C//DTD SVG 1.1//EN" "http://www.w3.org/Graphics/SVG/1.1/DTD/svg11.dtd">
<!-- Creator: CorelDRAW -->
<svg xmlns="http://www.w3.org/2000/svg" xml:space="preserve" width="2048px" height="2048px" style="shape-rendering:geometricPrecision; text-rendering:geometricPrecision; image-rendering:optimizeQuality; fill-rule:evenodd; clip-rule:evenodd"
viewBox="0 0 2048 2048"
 xmlns:xlink="http://www.w3.org/1999/xlink">
 <defs>
  <style type="text/css">
   <![CDATA[
    .fil4 {fill:none}
    .fil0 {fill:#414141;fill-rule:nonzero}
    .fil5 {fill:#7E7E7E;fill-rule:nonzero}
    .fil3 {fill:#A5A5A6;fill-rule:nonzero}
    .fil2 {fill:#B4B4B5;fill-rule:nonzero}
    .fil1 {fill:#BEBEBE;fill-rule:nonzero}
    .fil6 {fill:#FFFFFE;fill-rule:nonzero}
   ]]>
  </style>
 </defs>
 <g id="Layer_x0020_1">
  <metadata id="CorelCorpID_0Corel-Layer"/>
  <g id="_352836832">
   <g>
    <path id="_462140528" class="fil0" d="M911.215 1385.36c31.3725,0 59.7756,12.7193 80.3304,33.2811 20.5618,20.5559 33.2823,48.965 33.2823,80.3316 0,31.3725 -12.7205,59.7756 -33.2823,80.3375 -20.5547,20.5547 -48.9579,33.2752 -80.3304,33.2752 -31.3725,0 -59.7756,-12.7205 -80.3375,-33.2752 -20.5547,-20.5618 -33.2752,-48.965 -33.2752,-80.3375 0,-31.3666 12.7205,-59.7756 33.2752,-80.3316 20.5618,-20.5618 48.965,-33.2811 80.3375,-33.2811z"/>
    <path id="_462143672" class="fil1" d="M946.766 1463.43c-9.09568,-9.09568 -21.665,-14.7248 -35.5512,-14.7248 -13.8862,0 -26.4614,5.62914 -35.5583,14.7248 -9.09568,9.09568 -14.7177,21.6709 -14.7177,35.5512 0,13.8862 5.62205,26.4614 14.7177,35.5571 9.09686,9.09568 21.6721,14.7189 35.5583,14.7189 13.8862,0 26.4555,-5.62323 35.5512,-14.7189 9.09568,-9.09568 14.7248,-21.6709 14.7248,-35.5571 0,-13.8803 -5.62914,-26.4555 -14.7248,-35.5512z"/>
   </g>
   <g>
    <path id="_462143144" class="fil0" d="M1309.75 1385.36c31.3654,0 59.7756,12.7193 80.3304,33.2811 20.5618,20.5559 33.2823,48.965 33.2823,80.3316 0,31.3725 -12.7205,59.7756 -33.2823,80.3375 -20.5547,20.5547 -48.965,33.2752 -80.3304,33.2752 -31.3725,0 -59.7756,-12.7205 -80.3304,-33.2752 -20.5618,-20.5618 -33.2823,-48.965 -33.2823,-80.3375 0,-31.3666 12.7205,-59.7756 33.2823,-80.3316 20.5547,-20.5618 48.9579,-33.2811 80.3304,-33.2811z"/>
    <path id="_462143912" class="fil1" d="M1345.3 1463.43c-9.09568,-9.09568 -21.665,-14.7248 -35.5512,-14.7248 -13.8862,0 -26.4555,5.62914 -35.5512,14.7248 -9.09568,9.09568 -14.7248,21.6709 -14.7248,35.5512 0,13.8862 5.62914,26.4614 14.7248,35.5571 9.09568,9.09568 21.665,14.7189 35.5512,14.7189 13.8862,0 26.4555,-5.62323 35.5512,-14.7189 9.09568,-9.09568 14.7248,-21.6709 14.7248,-35.5571 0,-13.8803 -5.62914,-26.4555 -14.7248,-35.5512z"/>
   </g>
  </g>
  <path class="fil2" d="M558.534 718.291l1233.47 0.285827c-42.7016,73.9772 -85.402,147.963 -128.104,221.94l-0.106299 -0.0649607 -221.398 382.205 -607.499 0 -80.6209 -0.0283465 -311.902 -686.607c-63.5516,-138.921 -57.5292,-136.602 -185.825,-144.201l-0.542126 -71.4166c151.745,8.98465 169.863,7.81418 251.34,185.933l51.1926 111.954z"/>
  <path class="fil3" d="M1120 718.421l0.861024 0 671.139 0.155906c-42.7016,73.9772 -85.402,147.963 -128.104,221.94l-0.106299 -0.0649607 -221.398 382.205 -322.016 0 -0.376772 0 0 -604.236z"/>
  <path class="fil2" d="M558.534 718.291l561.465 0.129921 0 604.236 -285.107 0 -80.6209 -0.0283465 -311.902 -686.607c-63.5516,-138.921 -57.5292,-136.602 -185.825,-144.201l-0.542126 -71.4166c151.745,8.98465 169.863,7.81418 251.34,185.933l51.1926 111.954z"/>
  <rect class="fil4" width="2048" height="2048"/>
  <rect class="fil4" x="256.002" y="255.997" width="1536" height="1536.01"/>
  <polygon class="fil5" points="896.512,1203.21 1344.68,1203.21 1386.5,1131.51 864.392,1131.51 "/>
  <polygon class="fil5" points="838.615,1073.96 1420.07,1073.96 1461.89,1002.26 806.495,1002.26 "/>
  <polygon class="fil5" points="780.719,944.704 1495.46,944.704 1537.28,873.003 748.251,873.003 "/>
  <polygon class="fil6" points="887.339,1191.25 1338.58,1191.25 1380.68,1119.56 854.999,1119.56 "/>
  <polygon class="fil6" points="829.046,1062 1414.49,1062 1456.59,990.302 796.706,990.302 "/>
  <polygon class="fil6" points="770.753,932.75 1490.39,932.75 1532.49,861.049 738.063,861.049 "/>
 </g>
</svg>
